<svg xmlns="http://www.w3.org/2000/svg" viewBox="0 0 801.3 20.88"><defs><style>.cls-1{fill:#fff;}</style></defs><g id="Layer_2" data-name="Layer 2"><g id="full-rgb"><path class="cls-1" d="M0,.33H2.61v18h8.64v2.19H0Z"/><path class="cls-1" d="M69.63,11.07H61.77v7.29h8.76v2.19H59.16V.33H70.08V2.52H61.77V8.91h7.86Z"/><path class="cls-1" d="M134.31,19.65a18.84,18.84,0,0,1-6.21,1.11,10.39,10.39,0,0,1-7.56-2.67,10.4,10.4,0,0,1-2.82-7.53c0-6,4.17-10.44,10.95-10.44a12.5,12.5,0,0,1,5,.93l-.63,2.13a10.48,10.48,0,0,0-4.47-.87c-4.92,0-8.13,3.06-8.13,8.13s3.09,8.16,7.8,8.16a8.51,8.51,0,0,0,3.48-.54V12h-4.11V9.93h6.66Z"/><path class="cls-1" d="M193.77,11.07h-7.86v7.29h8.76v2.19H183.3V.33h10.92V2.52h-8.31V8.91h7.86Z"/><path class="cls-1" d="M243.06,20.55V.33h2.85l6.48,10.23A57.24,57.24,0,0,1,256,17.13l.06,0c-.24-2.7-.3-5.16-.3-8.31V.33h2.46V20.55H255.6l-6.42-10.26a64.18,64.18,0,0,1-3.78-6.75l-.09,0c.15,2.55.21,5,.21,8.34v8.64Z"/><path class="cls-1" d="M307.8.6a37.38,37.38,0,0,1,5.55-.42c3.75,0,6.42.87,8.19,2.52A9.31,9.31,0,0,1,324.39,10a10.69,10.69,0,0,1-2.91,7.86c-1.89,1.89-5,2.91-8.94,2.91a42.13,42.13,0,0,1-4.74-.24Zm2.61,17.88a16.48,16.48,0,0,0,2.64.15c5.58,0,8.61-3.12,8.61-8.58,0-4.77-2.67-7.8-8.19-7.8a14.83,14.83,0,0,0-3.06.27Z"/><path class="cls-1" d="M375.63,14.19l-2.1,6.36h-2.7L377.7.33h3.15l6.9,20.22H385l-2.16-6.36Zm6.63-2-2-5.82c-.45-1.32-.75-2.52-1-3.69h-.06c-.3,1.2-.63,2.43-1,3.66l-2,5.85Z"/><path class="cls-1" d="M435.72.6a27.19,27.19,0,0,1,5-.42c2.79,0,4.59.51,5.85,1.65a5,5,0,0,1,1.59,3.84,5.31,5.31,0,0,1-3.81,5.16v.09c1.56.54,2.49,2,3,4.08a32.18,32.18,0,0,0,1.56,5.55h-2.7a26.2,26.2,0,0,1-1.35-4.83c-.6-2.79-1.68-3.84-4-3.93h-2.46v8.76h-2.61Zm2.61,9.21H441c2.79,0,4.56-1.53,4.56-3.84,0-2.61-1.89-3.75-4.65-3.78a10.74,10.74,0,0,0-2.58.24Z"/><path class="cls-1" d="M501,20.55V12L494.64.33h3l2.85,5.58c.78,1.53,1.38,2.76,2,4.17h.06c.57-1.32,1.26-2.64,2-4.17L507.48.33h3l-6.78,11.61v8.61Z"/><path class="cls-1" d="M609.12.33h2.61v18h8.64v2.19H609.12Z"/><path class="cls-1" d="M670.89.33V20.55h-2.61V.33Z"/><path class="cls-1" d="M737.73,10.23c0,7-4.23,10.65-9.39,10.65-5.34,0-9.09-4.14-9.09-10.26,0-6.42,4-10.62,9.39-10.62S737.73,4.23,737.73,10.23ZM722,10.56c0,4.32,2.34,8.19,6.45,8.19s6.48-3.81,6.48-8.4c0-4-2.1-8.22-6.45-8.22S722,6.12,722,10.56Z"/><path class="cls-1" d="M786.12,20.55V.33H789l6.48,10.23a57.24,57.24,0,0,1,3.63,6.57l.06,0c-.24-2.7-.3-5.16-.3-8.31V.33h2.46V20.55h-2.64l-6.42-10.26a64.18,64.18,0,0,1-3.78-6.75l-.09,0c.15,2.55.21,5,.21,8.34v8.64Z"/></g></g></svg>